<svg width="22" height="23" viewBox="0 0 22 23" fill="none" xmlns="http://www.w3.org/2000/svg">
<path fill-rule="evenodd" clip-rule="evenodd" d="M4.64014 2.97852C4.00151 2.97852 3.4838 3.49623 3.4838 4.13486C3.4838 4.77349 4.00151 5.2912 4.64014 5.2912L17.3599 5.2912C17.9985 5.2912 18.5163 4.77349 18.5163 4.13486C18.5163 3.49623 17.9985 2.97852 17.3599 2.97852H4.64014ZM16.181 19.7636H5.81907C4.01228 19.7636 3.09082 18.8511 3.09082 17.0624V8.94994C3.09082 7.16122 4.01228 6.25783 5.81907 6.25783H16.181C17.9878 6.25783 18.9092 7.17026 18.9092 8.94994V17.0624C18.9092 18.8511 17.9878 19.7636 16.181 19.7636ZM10.3089 16.7282C10.3089 17.1437 10.607 17.4328 11.0226 17.4328C11.4382 17.4328 11.7363 17.1437 11.7363 16.7282V12.419L11.655 10.558L12.5132 11.6059L13.534 12.6448C13.6605 12.7803 13.8322 12.8526 14.0309 12.8526C14.4194 12.8526 14.7085 12.5635 14.7085 12.1841C14.7085 11.9853 14.6452 11.8318 14.5097 11.6963L11.5827 8.75119C11.402 8.57052 11.2394 8.48921 11.0226 8.48921C10.8058 8.48921 10.6522 8.56148 10.4625 8.75119L7.52648 11.6963C7.4 11.8318 7.33677 11.9853 7.33677 12.1841C7.33677 12.5635 7.62585 12.8526 8.01431 12.8526C8.20402 12.8526 8.3847 12.7713 8.51118 12.6448L9.53201 11.5969L10.3812 10.567L10.3089 12.419V16.7282Z" fill="#404040"/>
</svg>
