<svg width="22" height="23" viewBox="0 0 22 23" fill="none" xmlns="http://www.w3.org/2000/svg">
<path d="M5.82928 19.2656H16.1707C17.9739 19.2656 18.8935 18.3549 18.8935 16.5698V6.16529C18.8935 4.38913 17.9739 3.47852 16.1707 3.47852H5.82928C4.02608 3.47852 3.10645 4.38012 3.10645 6.16529V16.5698C3.10645 18.3549 4.02608 19.2656 5.82928 19.2656ZM11.0225 15.7854C10.6078 15.7854 10.3102 15.4969 10.3102 15.0821V10.7815L10.3824 8.93321L9.53487 9.96103L8.51606 11.0069C8.38983 11.1331 8.20951 11.2143 8.02018 11.2143C7.63249 11.2143 7.34397 10.9257 7.34397 10.5471C7.34397 10.3487 7.40709 10.1954 7.53331 10.0602L10.4635 7.12099C10.6529 6.93165 10.8061 6.85952 11.0225 6.85952C11.2389 6.85952 11.4012 6.94067 11.5815 7.12099L14.5027 10.0602C14.6379 10.1954 14.701 10.3487 14.701 10.5471C14.701 10.9257 14.4125 11.2143 14.0248 11.2143C13.8265 11.2143 13.6552 11.1421 13.529 11.0069L12.5102 9.97005L11.6536 8.92419L11.7348 10.7815V15.0821C11.7348 15.4969 11.4372 15.7854 11.0225 15.7854Z" fill="#404040"/>
</svg>
