<svg width="22" height="23" viewBox="0 0 22 23" fill="none" xmlns="http://www.w3.org/2000/svg">
<path d="M16.1707 3.47662L5.82934 3.47662C4.02614 3.47662 3.10651 4.38724 3.10651 6.17241L3.1065 16.5769C3.1065 18.3531 4.02614 19.2637 5.82934 19.2637L16.1707 19.2637C17.9739 19.2637 18.8936 18.3621 18.8936 16.5769L18.8936 6.17241C18.8936 4.38724 17.9739 3.47662 16.1707 3.47662ZM10.9775 6.9568C11.3922 6.9568 11.6898 7.24532 11.6898 7.66005L11.6898 11.9607L11.6176 13.809L12.4651 12.7812L13.4839 11.7353C13.6102 11.6091 13.7905 11.5279 13.9798 11.5279C14.3675 11.5279 14.656 11.8164 14.656 12.1951C14.656 12.3935 14.5929 12.5467 14.4667 12.682L11.5365 15.6212C11.3471 15.8105 11.1939 15.8827 10.9775 15.8827C10.7611 15.8827 10.5988 15.8015 10.4185 15.6212L7.49731 12.682C7.36207 12.5467 7.29895 12.3935 7.29895 12.1951C7.29895 11.8164 7.58747 11.5279 7.97516 11.5279C8.17351 11.5279 8.34481 11.6001 8.47104 11.7353L9.48985 12.7721L10.3464 13.818L10.2652 11.9607L10.2652 7.66005C10.2652 7.24532 10.5628 6.9568 10.9775 6.9568Z" fill="#404040"/>
</svg>
