<svg width="22" height="23" viewBox="0 0 22 23" fill="none" xmlns="http://www.w3.org/2000/svg">
<path fill-rule="evenodd" clip-rule="evenodd" d="M17.3599 19.7637C17.9985 19.7637 18.5162 19.246 18.5162 18.6073C18.5162 17.9687 17.9985 17.451 17.3599 17.451L4.64009 17.451C4.00146 17.451 3.48375 17.9687 3.48375 18.6073C3.48375 19.246 4.00146 19.7637 4.64009 19.7637L17.3599 19.7637ZM5.81902 2.97863L16.1809 2.97864C17.9877 2.97864 18.9092 3.89106 18.9092 5.67978L18.9092 13.7922C18.9092 15.581 17.9877 16.4844 16.1809 16.4844L5.81902 16.4844C4.01223 16.4844 3.09077 15.5719 3.09077 13.7922L3.09077 5.67978C3.09077 3.89106 4.01224 2.97863 5.81902 2.97863ZM11.6911 6.01404C11.6911 5.59847 11.393 5.30939 10.9774 5.30939C10.5618 5.30939 10.2637 5.59847 10.2637 6.01404L10.2637 10.3232L10.345 12.1842L9.48679 11.1363L8.46596 10.0974C8.33949 9.96186 8.16784 9.88959 7.9691 9.88959C7.58064 9.88959 7.29155 10.1787 7.29155 10.5581C7.29155 10.7568 7.35479 10.9104 7.4903 11.0459L10.4173 13.991C10.598 14.1717 10.7606 14.253 10.9774 14.253C11.1942 14.253 11.3478 14.1807 11.5375 13.991L14.4735 11.0459C14.6 10.9104 14.6632 10.7568 14.6632 10.5581C14.6632 10.1787 14.3741 9.88959 13.9857 9.88959C13.796 9.88959 13.6153 9.9709 13.4888 10.0974L12.468 11.1453L11.6188 12.1752L11.6911 10.3232L11.6911 6.01404Z" fill="#404040"/>
</svg>
